<mxfile host="app.diagrams.net" modified="2024-02-29T08:01:50.685Z" agent="Mozilla/5.0 (Windows NT 10.0; Win64; x64) AppleWebKit/537.36 (KHTML, like Gecko) Chrome/121.0.0.0 Safari/537.36" etag="bxjBafywCQMRCasHLAVG" version="23.1.8" type="github">
  <diagram name="Page-1" id="HltVD5W5gFdXMv8CIgrV">
    <mxGraphModel dx="2049" dy="757" grid="1" gridSize="10" guides="1" tooltips="1" connect="1" arrows="1" fold="1" page="1" pageScale="1" pageWidth="827" pageHeight="1169" math="0" shadow="0">
      <root>
        <mxCell id="0" />
        <mxCell id="1" parent="0" />
        <mxCell id="P1ORyM4EShu1yoZ7qytK-1" value="" style="rounded=0;whiteSpace=wrap;html=1;" vertex="1" parent="1">
          <mxGeometry x="230" y="50" width="320" height="60" as="geometry" />
        </mxCell>
        <mxCell id="P1ORyM4EShu1yoZ7qytK-2" value="Parliament Management&lt;br style=&quot;font-size: 16px;&quot;&gt;System" style="text;html=1;align=center;verticalAlign=middle;whiteSpace=wrap;rounded=0;fontSize=16;" vertex="1" parent="1">
          <mxGeometry x="300" y="50" width="190" height="70" as="geometry" />
        </mxCell>
        <mxCell id="P1ORyM4EShu1yoZ7qytK-3" value="" style="endArrow=none;html=1;rounded=0;entryX=0;entryY=1;entryDx=0;entryDy=0;" edge="1" parent="1" target="P1ORyM4EShu1yoZ7qytK-1">
          <mxGeometry width="50" height="50" relative="1" as="geometry">
            <mxPoint x="230" y="930" as="sourcePoint" />
            <mxPoint x="490" y="430" as="targetPoint" />
          </mxGeometry>
        </mxCell>
        <mxCell id="P1ORyM4EShu1yoZ7qytK-4" value="" style="endArrow=none;html=1;rounded=0;entryX=0;entryY=1;entryDx=0;entryDy=0;" edge="1" parent="1">
          <mxGeometry width="50" height="50" relative="1" as="geometry">
            <mxPoint x="550" y="930" as="sourcePoint" />
            <mxPoint x="550" y="110" as="targetPoint" />
          </mxGeometry>
        </mxCell>
        <mxCell id="P1ORyM4EShu1yoZ7qytK-5" value="Actor" style="shape=umlActor;verticalLabelPosition=bottom;verticalAlign=top;html=1;outlineConnect=0;" vertex="1" parent="1">
          <mxGeometry x="-30" y="170" width="80" height="120" as="geometry" />
        </mxCell>
        <mxCell id="P1ORyM4EShu1yoZ7qytK-6" value="MPs" style="text;html=1;align=center;verticalAlign=middle;whiteSpace=wrap;rounded=0;" vertex="1" parent="1">
          <mxGeometry x="20" y="215" width="60" height="30" as="geometry" />
        </mxCell>
        <mxCell id="P1ORyM4EShu1yoZ7qytK-7" value="Actor" style="shape=umlActor;verticalLabelPosition=bottom;verticalAlign=top;html=1;outlineConnect=0;" vertex="1" parent="1">
          <mxGeometry x="-30" y="360" width="80" height="120" as="geometry" />
        </mxCell>
        <mxCell id="P1ORyM4EShu1yoZ7qytK-8" value="Constituents" style="text;html=1;align=center;verticalAlign=middle;whiteSpace=wrap;rounded=0;fontSize=10;" vertex="1" parent="1">
          <mxGeometry x="20" y="405" width="60" height="30" as="geometry" />
        </mxCell>
        <mxCell id="P1ORyM4EShu1yoZ7qytK-9" value="Actor" style="shape=umlActor;verticalLabelPosition=bottom;verticalAlign=top;html=1;outlineConnect=0;" vertex="1" parent="1">
          <mxGeometry x="710" y="525" width="80" height="120" as="geometry" />
        </mxCell>
        <mxCell id="P1ORyM4EShu1yoZ7qytK-10" value="Government&lt;br&gt;Agencies" style="text;html=1;align=center;verticalAlign=middle;whiteSpace=wrap;rounded=0;" vertex="1" parent="1">
          <mxGeometry x="680" y="570" width="60" height="30" as="geometry" />
        </mxCell>
        <mxCell id="P1ORyM4EShu1yoZ7qytK-11" value="Propose Bill" style="ellipse;whiteSpace=wrap;html=1;" vertex="1" parent="1">
          <mxGeometry x="315" y="150" width="150" height="60" as="geometry" />
        </mxCell>
        <mxCell id="P1ORyM4EShu1yoZ7qytK-12" value="Attend Online Sessions" style="ellipse;whiteSpace=wrap;html=1;" vertex="1" parent="1">
          <mxGeometry x="320" y="330" width="150" height="60" as="geometry" />
        </mxCell>
        <mxCell id="P1ORyM4EShu1yoZ7qytK-13" value="View Constituency" style="ellipse;whiteSpace=wrap;html=1;" vertex="1" parent="1">
          <mxGeometry x="320" y="410" width="150" height="60" as="geometry" />
        </mxCell>
        <mxCell id="P1ORyM4EShu1yoZ7qytK-14" value="Vote on Bill" style="ellipse;whiteSpace=wrap;html=1;" vertex="1" parent="1">
          <mxGeometry x="250" y="240" width="150" height="60" as="geometry" />
        </mxCell>
        <mxCell id="P1ORyM4EShu1yoZ7qytK-15" value="Comment on&lt;br&gt;proposed bills" style="ellipse;whiteSpace=wrap;html=1;" vertex="1" parent="1">
          <mxGeometry x="360" y="670" width="150" height="60" as="geometry" />
        </mxCell>
        <mxCell id="P1ORyM4EShu1yoZ7qytK-16" value="Provide Input" style="ellipse;whiteSpace=wrap;html=1;" vertex="1" parent="1">
          <mxGeometry x="320" y="760" width="150" height="60" as="geometry" />
        </mxCell>
        <mxCell id="P1ORyM4EShu1yoZ7qytK-17" value="Manage Legislation" style="ellipse;whiteSpace=wrap;html=1;" vertex="1" parent="1">
          <mxGeometry x="320" y="840" width="150" height="60" as="geometry" />
        </mxCell>
        <mxCell id="P1ORyM4EShu1yoZ7qytK-18" value="&amp;lt;&amp;lt;include&amp;gt;&amp;gt;" style="text;html=1;align=center;verticalAlign=middle;whiteSpace=wrap;rounded=0;" vertex="1" parent="1">
          <mxGeometry x="365" y="215" width="60" height="30" as="geometry" />
        </mxCell>
        <mxCell id="P1ORyM4EShu1yoZ7qytK-19" value="" style="endArrow=none;html=1;rounded=0;exitX=1;exitY=0.25;exitDx=0;exitDy=0;entryX=0;entryY=0.5;entryDx=0;entryDy=0;" edge="1" parent="1" source="P1ORyM4EShu1yoZ7qytK-6" target="P1ORyM4EShu1yoZ7qytK-11">
          <mxGeometry width="50" height="50" relative="1" as="geometry">
            <mxPoint x="300" y="440" as="sourcePoint" />
            <mxPoint x="310" y="180" as="targetPoint" />
          </mxGeometry>
        </mxCell>
        <mxCell id="P1ORyM4EShu1yoZ7qytK-20" value="" style="endArrow=classic;html=1;rounded=0;entryX=0.534;entryY=-0.023;entryDx=0;entryDy=0;entryPerimeter=0;exitX=0.286;exitY=0.969;exitDx=0;exitDy=0;exitPerimeter=0;" edge="1" parent="1" source="P1ORyM4EShu1yoZ7qytK-11" target="P1ORyM4EShu1yoZ7qytK-14">
          <mxGeometry width="50" height="50" relative="1" as="geometry">
            <mxPoint x="370" y="310" as="sourcePoint" />
            <mxPoint x="420" y="260" as="targetPoint" />
          </mxGeometry>
        </mxCell>
        <mxCell id="P1ORyM4EShu1yoZ7qytK-21" value="View Bills" style="ellipse;whiteSpace=wrap;html=1;" vertex="1" parent="1">
          <mxGeometry x="320" y="480" width="150" height="60" as="geometry" />
        </mxCell>
        <mxCell id="P1ORyM4EShu1yoZ7qytK-22" value="" style="endArrow=none;html=1;rounded=0;exitX=1;exitY=0.25;exitDx=0;exitDy=0;entryX=0;entryY=0.5;entryDx=0;entryDy=0;" edge="1" parent="1" source="P1ORyM4EShu1yoZ7qytK-6" target="P1ORyM4EShu1yoZ7qytK-12">
          <mxGeometry width="50" height="50" relative="1" as="geometry">
            <mxPoint x="280" y="520" as="sourcePoint" />
            <mxPoint x="330" y="470" as="targetPoint" />
          </mxGeometry>
        </mxCell>
        <mxCell id="P1ORyM4EShu1yoZ7qytK-23" value="" style="endArrow=none;html=1;rounded=0;entryX=0;entryY=0.5;entryDx=0;entryDy=0;" edge="1" parent="1" target="P1ORyM4EShu1yoZ7qytK-13">
          <mxGeometry width="50" height="50" relative="1" as="geometry">
            <mxPoint x="80" y="220" as="sourcePoint" />
            <mxPoint x="330" y="470" as="targetPoint" />
          </mxGeometry>
        </mxCell>
        <mxCell id="P1ORyM4EShu1yoZ7qytK-24" value="" style="endArrow=none;html=1;rounded=0;exitX=1;exitY=0.5;exitDx=0;exitDy=0;entryX=0;entryY=0.5;entryDx=0;entryDy=0;" edge="1" parent="1" source="P1ORyM4EShu1yoZ7qytK-8" target="P1ORyM4EShu1yoZ7qytK-21">
          <mxGeometry width="50" height="50" relative="1" as="geometry">
            <mxPoint x="280" y="520" as="sourcePoint" />
            <mxPoint x="330" y="470" as="targetPoint" />
          </mxGeometry>
        </mxCell>
        <mxCell id="P1ORyM4EShu1yoZ7qytK-25" value="" style="endArrow=none;html=1;rounded=0;entryX=0;entryY=0.5;entryDx=0;entryDy=0;exitX=1;exitY=0.5;exitDx=0;exitDy=0;" edge="1" parent="1" target="P1ORyM4EShu1yoZ7qytK-29" source="P1ORyM4EShu1yoZ7qytK-8">
          <mxGeometry width="50" height="50" relative="1" as="geometry">
            <mxPoint x="90" y="420" as="sourcePoint" />
            <mxPoint x="330" y="620" as="targetPoint" />
          </mxGeometry>
        </mxCell>
        <mxCell id="P1ORyM4EShu1yoZ7qytK-27" value="" style="endArrow=none;html=1;rounded=0;entryX=1;entryY=0.5;entryDx=0;entryDy=0;exitX=0;exitY=0.5;exitDx=0;exitDy=0;" edge="1" parent="1" source="P1ORyM4EShu1yoZ7qytK-10" target="P1ORyM4EShu1yoZ7qytK-13">
          <mxGeometry width="50" height="50" relative="1" as="geometry">
            <mxPoint x="390" y="540" as="sourcePoint" />
            <mxPoint x="440" y="490" as="targetPoint" />
          </mxGeometry>
        </mxCell>
        <mxCell id="P1ORyM4EShu1yoZ7qytK-28" value="" style="endArrow=none;html=1;rounded=0;" edge="1" parent="1">
          <mxGeometry width="50" height="50" relative="1" as="geometry">
            <mxPoint x="230" y="930" as="sourcePoint" />
            <mxPoint x="550" y="930" as="targetPoint" />
          </mxGeometry>
        </mxCell>
        <mxCell id="P1ORyM4EShu1yoZ7qytK-29" value="Provide Feedback" style="ellipse;whiteSpace=wrap;html=1;" vertex="1" parent="1">
          <mxGeometry x="320" y="570" width="150" height="60" as="geometry" />
        </mxCell>
        <mxCell id="P1ORyM4EShu1yoZ7qytK-30" value="" style="endArrow=classic;html=1;rounded=0;entryX=0.5;entryY=0;entryDx=0;entryDy=0;exitX=0.5;exitY=1;exitDx=0;exitDy=0;" edge="1" parent="1" source="P1ORyM4EShu1yoZ7qytK-29" target="P1ORyM4EShu1yoZ7qytK-15">
          <mxGeometry width="50" height="50" relative="1" as="geometry">
            <mxPoint x="390" y="660" as="sourcePoint" />
            <mxPoint x="380" y="630" as="targetPoint" />
          </mxGeometry>
        </mxCell>
        <mxCell id="P1ORyM4EShu1yoZ7qytK-31" value="&amp;lt;&amp;lt;include&amp;gt;&amp;gt;" style="text;html=1;align=center;verticalAlign=middle;whiteSpace=wrap;rounded=0;" vertex="1" parent="1">
          <mxGeometry x="425" y="630" width="60" height="30" as="geometry" />
        </mxCell>
        <mxCell id="P1ORyM4EShu1yoZ7qytK-32" value="" style="endArrow=none;html=1;rounded=0;exitX=1;exitY=0.5;exitDx=0;exitDy=0;entryX=0;entryY=0.5;entryDx=0;entryDy=0;" edge="1" parent="1" source="P1ORyM4EShu1yoZ7qytK-17" target="P1ORyM4EShu1yoZ7qytK-10">
          <mxGeometry width="50" height="50" relative="1" as="geometry">
            <mxPoint x="590" y="780" as="sourcePoint" />
            <mxPoint x="660" y="590" as="targetPoint" />
          </mxGeometry>
        </mxCell>
        <mxCell id="P1ORyM4EShu1yoZ7qytK-33" value="" style="endArrow=none;html=1;rounded=0;exitX=1;exitY=0.5;exitDx=0;exitDy=0;entryX=0;entryY=0.5;entryDx=0;entryDy=0;" edge="1" parent="1" source="P1ORyM4EShu1yoZ7qytK-16" target="P1ORyM4EShu1yoZ7qytK-10">
          <mxGeometry width="50" height="50" relative="1" as="geometry">
            <mxPoint x="450" y="680" as="sourcePoint" />
            <mxPoint x="670" y="580" as="targetPoint" />
          </mxGeometry>
        </mxCell>
        <mxCell id="P1ORyM4EShu1yoZ7qytK-34" value="" style="endArrow=none;html=1;rounded=0;entryX=1.006;entryY=0.617;entryDx=0;entryDy=0;entryPerimeter=0;exitX=0;exitY=0.5;exitDx=0;exitDy=0;" edge="1" parent="1" source="P1ORyM4EShu1yoZ7qytK-10" target="P1ORyM4EShu1yoZ7qytK-21">
          <mxGeometry width="50" height="50" relative="1" as="geometry">
            <mxPoint x="680" y="590" as="sourcePoint" />
            <mxPoint x="500" y="590" as="targetPoint" />
          </mxGeometry>
        </mxCell>
        <mxCell id="P1ORyM4EShu1yoZ7qytK-35" value="" style="endArrow=none;html=1;rounded=0;entryX=1;entryY=0.25;entryDx=0;entryDy=0;" edge="1" parent="1" target="P1ORyM4EShu1yoZ7qytK-6">
          <mxGeometry width="50" height="50" relative="1" as="geometry">
            <mxPoint x="320" y="510" as="sourcePoint" />
            <mxPoint x="370" y="410" as="targetPoint" />
          </mxGeometry>
        </mxCell>
      </root>
    </mxGraphModel>
  </diagram>
</mxfile>
